<svg id="Layer_1" data-name="Layer 1" xmlns="http://www.w3.org/2000/svg" viewBox="0 0 595.28 597.54"><path d="M280.61,333.22a85.9,85.9,0,1,1,85.89-85.9A86,86,0,0,1,280.61,333.22Zm0-126.79a40.9,40.9,0,1,0,40.89,40.89A40.94,40.94,0,0,0,280.61,206.43Zm0-163.15c-112,0-203.14,91.13-203.14,203.14,0,6.37,2.79,35.13,5.85,48.46a101.91,101.91,0,0,0,4.59,15.84c.31.76,1.29,3.11,2.52,6.43,1.31,3.53,2.15,6.17,2.22,6.37,13.58,37.7,38.55,78.55,74.24,121.43A694.25,694.25,0,0,0,280.61,553.36V502.23a649.69,649.69,0,0,1-83-82.87c-32.45-39-55-75.54-67.07-108.64h.13c-.32-.74-.62-1.49-.93-2.23a306.46,306.46,0,0,1-9.88-34.12,164,164,0,0,1-2.41-28c0-90,73.18-163.14,163.14-163.14,86.83,0,158,68.19,162.86,153.82l38.21,38.21a203.92,203.92,0,0,0,2.06-28.89C483.74,134.41,392.62,43.28,280.61,43.28ZM457.77,413.89H404.16v59.8h53.61ZM355.25,500.11V457.19h0v42.92A17.79,17.79,0,0,0,365.08,516,17.81,17.81,0,0,1,355.25,500.11Zm151.44,0a17.77,17.77,0,0,1-6.12,13.4,17.77,17.77,0,0,0,6.12-13.4V457.19h0Zm0-79.89v79.89a17.86,17.86,0,0,1-17.81,17.8H373.06a17.87,17.87,0,0,1-17.81-17.8V406.89l-45,39.66v53.56a62.88,62.88,0,0,0,62.81,62.8H488.88a62.87,62.87,0,0,0,62.81-62.8V446.55l-45-39.67ZM373.06,517.91a17.69,17.69,0,0,1-8-1.91,17.69,17.69,0,0,0,8,1.91H488.88a17.74,17.74,0,0,0,11.69-4.4,17.74,17.74,0,0,1-11.69,4.4Zm-17.81-97.69h0v37h0Zm151.44,37h0v-37h0Zm74.76-44.39-29.76-26.24-12.87-11.34-84-74a36.14,36.14,0,0,0-47.8,0l-83.94,74-12.88,11.34L280.49,412.8a6.49,6.49,0,0,0-.58,9.18l21.15,24a6.52,6.52,0,0,0,9.19.57l45-39.66,35.93-31.67,7-6.2,16.72-14.74a24.26,24.26,0,0,1,32.07,0L463.73,369l7,6.2,35.92,31.66,45,39.67a6.5,6.5,0,0,0,9.18-.57L582,422A6.51,6.51,0,0,0,581.45,412.8Z"/></svg>