<svg id="Layer_1" data-name="Layer 1" xmlns="http://www.w3.org/2000/svg" viewBox="0 0 595.28 597.54"><path d="M477.18,360l-45.85-47.25L393.6,273.88l-20.14-20.76,17.66-30.58.29-.65A103.07,103.07,0,1,0,200,146.17a103.21,103.21,0,0,0-5.38,33,102.08,102.08,0,0,0,9.22,42.65l.3.66,17.71,30.67-20.14,20.76-46.09,47.5L118.09,360a15,15,0,0,0,21.53,20.89l16-16.46v116a41,41,0,0,0,41,41H390.32a41,41,0,0,0,41-41V355.85l24.32,25.06A15,15,0,1,0,477.18,360ZM228.4,155.76a73.07,73.07,0,1,1,136,53.05l-12.67,21.94-15.59,27-38.51,66.68-38.5-66.69-15.6-27-12.71-22a72.32,72.32,0,0,1-6.24-29.58A73.1,73.1,0,0,1,228.4,155.76ZM401.33,471a20.4,20.4,0,0,1-20.4,20.41H206A20.41,20.41,0,0,1,185.59,471V333.54l28.78-29.66,23-23.75,39.1,67.72a24.38,24.38,0,0,0,42.24,0l39.1-67.71,23,23.74,20.43,21.05Zm-61-47.16H246.64a15,15,0,0,1-15-15h0a15,15,0,0,1,15-15h93.65a15,15,0,0,1,15,15h0A15,15,0,0,1,340.29,423.88ZM297.64,240.2a52.57,52.57,0,1,1,52.56-52.57A52.63,52.63,0,0,1,297.64,240.2Zm0-75.13a22.57,22.57,0,1,0,22.56,22.56A22.59,22.59,0,0,0,297.64,165.07Z"/></svg>