<svg id="Layer_1" data-name="Layer 1" xmlns="http://www.w3.org/2000/svg" viewBox="0 0 595.28 597.54"><path d="M510.73,237.15A215.53,215.53,0,1,0,202.42,432a385,385,0,0,1,34.17,33.11,373.73,373.73,0,0,1,44.31,59.51,16.51,16.51,0,0,0,28.32,0,374.23,374.23,0,0,1,44.3-59.51A384.77,384.77,0,0,1,387.69,432,215.29,215.29,0,0,0,416,415.78l0,0,3.44-2.45,4.83-3.42-.06-.07a218.25,218.25,0,0,0,23.3-20.22c4.39-4.38,8.64-9,12.7-13.86l.06.06,3.49-4.37v0L466.6,368l0,0A212.9,212.9,0,0,0,510.73,237.15Zm-97.42,85.72a146.09,146.09,0,0,1-118.25,60.39C214.49,383.26,149,317.72,149,237.15S214.49,91,295.06,91s146.11,65.54,146.11,146.11A145,145,0,0,1,413.31,322.87Z"/></svg>