<svg id="Layer_1" data-name="Layer 1" xmlns="http://www.w3.org/2000/svg" viewBox="0 0 595.28 597.54"><path d="M512.47,517.84a34.83,34.83,0,0,1-49.19,0L388.6,443.16l4.83-3.43a207.83,207.83,0,0,0,42.29-40l3.49-4.37,73.26,73.26A34.83,34.83,0,0,1,512.47,517.84ZM446.32,402.51,443.55,406l0,0L440,410.37l-.05-.05c-4.06,4.82-8.32,9.47-12.7,13.86A219.49,219.49,0,0,1,404,444.4l.07.06-4.84,3.43-3.44,2.44,0,0A215.7,215.7,0,0,1,122.28,119.17,215.68,215.68,0,0,1,490.46,271.68a212.94,212.94,0,0,1-44.17,130.8Zm-95.65-6A146.45,146.45,0,0,0,393,357.39a144.83,144.83,0,0,0,27.86-85.71c0-80.57-65.54-146.12-146.11-146.12S128.67,191.11,128.67,271.68s65.55,146.11,146.11,146.11A145.64,145.64,0,0,0,350.67,396.49Z"/></svg>